<svg width="300" height="300" viewBox="0 0 300 300" fill="none" xmlns="http://www.w3.org/2000/svg">
<rect width="300" height="300" fill="#4C6FFF"/>
<path d="M126.909 187.098H59.8355L44.7714 228.805H23L84.1359 69H102.609L163.855 228.805H142.193L126.909 187.098ZM66.213 169.756H120.642L93.3723 95.0122L66.213 169.756Z" fill="white"/>
<path d="M255.668 228.805C254.496 226.463 253.543 222.293 252.81 216.293C243.353 226.098 232.064 231 218.943 231C207.214 231 197.575 227.707 190.024 221.122C182.547 214.463 178.809 206.049 178.809 195.878C178.809 183.512 183.5 173.927 192.883 167.122C202.339 160.244 215.607 156.805 232.687 156.805H252.48V147.476C252.48 140.378 250.354 134.744 246.102 130.573C241.851 126.329 235.583 124.207 227.3 124.207C220.042 124.207 213.958 126.037 209.047 129.695C204.135 133.354 201.68 137.78 201.68 142.976H181.228C181.228 137.049 183.317 131.341 187.495 125.854C191.747 120.293 197.465 115.902 204.648 112.683C211.906 109.463 219.859 107.854 228.509 107.854C242.217 107.854 252.956 111.293 260.726 118.171C268.497 124.976 272.528 134.378 272.822 146.378V201.037C272.822 211.939 274.214 220.61 277 227.049V228.805H255.668ZM221.912 213.329C228.289 213.329 234.337 211.683 240.055 208.39C245.772 205.098 249.914 200.817 252.48 195.549V171.183H236.536C211.612 171.183 199.151 178.463 199.151 193.024C199.151 199.39 201.276 204.366 205.528 207.951C209.78 211.537 215.241 213.329 221.912 213.329Z" fill="white"/>
</svg>
